<?xml version="1.0" encoding="UTF-8"?><svg xmlns="http://www.w3.org/2000/svg" xmlns:xlink="http://www.w3.org/1999/xlink" width="450" zoomAndPan="magnify" viewBox="0 0 450 449.999984" height="449.999984" preserveAspectRatio="xMidYMid meet" version="1.0"><defs><clipPath id="clip-0"><path d="M 190.578125 123.734375 L 449.902344 123.734375 L 449.902344 289.484375 L 190.578125 289.484375 Z M 190.578125 123.734375 " clip-rule="nonzero"/></clipPath><clipPath id="clip-1"><path d="M 0 72.941406 L 234.75 72.941406 L 234.75 289.691406 L 0 289.691406 Z M 0 72.941406 " clip-rule="nonzero"/></clipPath><clipPath id="clip-2"><path d="M 103.027344 313 L 144 313 L 144 323 L 103.027344 323 Z M 103.027344 313 " clip-rule="nonzero"/></clipPath><clipPath id="clip-3"><path d="M 134 309.296875 L 277.402344 309.296875 L 277.402344 400.460938 L 134 400.460938 Z M 134 309.296875 " clip-rule="nonzero"/></clipPath></defs><g clip-path="url(#clip-0)"><path fill="rgb(7.449341%, 21.179199%, 36.079407%)" d="M 447.824219 239.460938 C 447.824219 241.824219 446.984375 247.550781 446.757812 248.238281 C 445.949219 250.269531 443.269531 253.085938 440.371094 255.09375 L 400.921875 282.4375 C 397.421875 284.859375 390.960938 286.894531 386.824219 286.894531 L 198.378906 286.894531 C 195.019531 286.894531 193.003906 285.503906 193.003906 283.164062 C 193.003906 282.578125 193.261719 281.941406 193.777344 281.246094 C 194.367188 282.042969 195.652344 282.75 198.378906 282.75 L 386.824219 282.75 C 391.484375 282.75 398.4375 280.617188 402.328125 277.929688 C 402.328125 277.929688 441.773438 250.644531 441.792969 250.632812 C 444.886719 248.488281 445.171875 245.277344 445.226562 241.78125 C 445.273438 238.988281 445.21875 236.203125 445.21875 233.410156 C 445.21875 230.226562 445.230469 227.050781 445.230469 223.867188 C 445.230469 219.625 445.230469 215.382812 445.230469 211.140625 C 445.230469 206.511719 445.230469 201.878906 445.230469 197.25 C 445.230469 192.359375 445.230469 187.464844 445.230469 182.574219 C 445.230469 177.828125 445.230469 173.082031 445.230469 168.339844 C 445.230469 164 445.230469 159.664062 445.230469 155.328125 C 445.230469 151.742188 445.230469 148.15625 445.230469 144.570312 C 445.230469 142.003906 445.230469 139.4375 445.230469 136.867188 C 445.230469 135.730469 445.230469 134.597656 445.230469 133.460938 C 445.230469 133.375 445.230469 133.292969 445.230469 133.203125 C 445.230469 130.640625 444.179688 128.277344 442.488281 126.554688 C 445.496094 127.324219 447.824219 130.003906 447.824219 133.203125 Z M 440.738281 123.734375 L 251.367188 123.734375 C 246.214844 123.734375 241.777344 128.0625 241.777344 133.203125 L 241.777344 242.703125 C 241.777344 242.71875 241.78125 242.734375 241.78125 242.75 C 241.789062 243.714844 242.058594 244.652344 242.335938 245.527344 C 241.355469 245.847656 240.417969 246.207031 239.53125 246.597656 C 238.066406 247.230469 236.738281 247.945312 235.644531 248.699219 L 196.207031 275.929688 C 196.007812 276.066406 195.828125 276.203125 195.652344 276.335938 C 192.152344 278.859375 190.578125 281.027344 190.578125 283.242188 C 190.578125 286.089844 192.621094 289.484375 198.378906 289.484375 L 386.824219 289.484375 C 391.457031 289.484375 398.378906 287.21875 402.289062 284.515625 L 441.714844 257.097656 C 444.265625 255.332031 447.632812 252.1875 448.839844 249.136719 C 449.238281 248.136719 449.902344 241.804688 449.902344 239.460938 L 449.902344 133.203125 C 449.902344 128.0625 445.890625 123.734375 440.738281 123.734375 " fill-opacity="1" fill-rule="nonzero"/></g><path fill="rgb(98.429871%, 99.609375%, 99.609375%)" d="M 435.988281 133.113281 C 434.785156 132.421875 433.394531 132.023438 431.910156 132.023438 L 255.617188 132.023438 C 251.125 132.023438 247.488281 135.65625 247.488281 140.132812 L 247.488281 231.128906 C 247.488281 235.191406 250.476562 238.550781 254.378906 239.148438 C 254.78125 239.210938 255.195312 239.242188 255.617188 239.242188 L 431.980469 239.242188 C 432.097656 239.242188 432.210938 239.242188 432.332031 239.230469 C 436.625 239.011719 440.039062 235.46875 440.039062 231.128906 L 440.039062 140.132812 C 440.039062 137.136719 438.410156 134.519531 435.988281 133.113281 " fill-opacity="1" fill-rule="nonzero"/><path fill="rgb(98.429871%, 99.609375%, 99.609375%)" d="M 283.136719 270.519531 L 277.972656 274.15625 C 274.726562 276.335938 274.796875 278.253906 277.863281 278.703125 C 320.851562 275.328125 319.292969 267.621094 321.914062 266.175781 L 298.003906 265.824219 C 293.535156 265.824219 286.84375 268.027344 283.136719 270.519531 " fill-opacity="1" fill-rule="nonzero"/><path fill="rgb(9.799194%, 68.629456%, 81.959534%)" d="M 254.378906 239.148438 C 254.78125 239.210938 255.195312 239.242188 255.617188 239.242188 L 431.980469 239.242188 C 432.097656 239.242188 432.210938 239.242188 432.332031 239.230469 C 436.625 239.011719 440.039062 235.46875 440.039062 231.128906 L 440.039062 140.132812 C 440.039062 137.136719 438.410156 134.519531 435.988281 133.113281 C 421.855469 138.113281 411.625 150.371094 400.28125 159.707031 C 396.398438 162.910156 392.441406 166.246094 387.824219 168.375 C 382.890625 170.640625 377.5 171.523438 372.105469 172.015625 C 361.449219 172.988281 350.84375 173.574219 341.199219 178.613281 C 331.902344 183.46875 326.109375 190.511719 319.816406 198.476562 C 313.050781 207.050781 304.296875 211.707031 293.550781 214.265625 C 282.335938 216.9375 270.355469 217.734375 259.972656 223.007812 C 256.917969 224.5625 251.066406 226.847656 247.488281 230.011719 L 247.488281 231.332031 C 247.488281 235.292969 250.476562 238.574219 254.378906 239.148438 " fill-opacity="1" fill-rule="nonzero"/><path fill="rgb(9.799194%, 68.629456%, 81.959534%)" d="M 336.777344 266.175781 L 321.914062 266.175781 C 319.503906 267.527344 317.121094 269.046875 314.550781 270.460938 C 308.339844 273.875 302.011719 273.992188 295.136719 274.03125 C 289.066406 274.070312 282.789062 274.832031 277.984375 278.609375 L 318.128906 278.609375 C 320.984375 278.609375 325.253906 277.292969 327.621094 275.695312 L 337.660156 269.007812 C 340.027344 267.417969 339.632812 266.175781 336.777344 266.175781 " fill-opacity="1" fill-rule="nonzero"/><path fill="rgb(9.799194%, 68.629456%, 81.959534%)" d="M 291.980469 257.9375 C 290.796875 258.734375 290.996094 259.441406 292.421875 259.441406 L 342.445312 259.441406 C 343.875 259.441406 346.011719 258.734375 347.195312 257.9375 L 348.128906 257.285156 C 349.3125 256.492188 349.113281 255.816406 347.6875 255.816406 L 297.664062 255.816406 C 296.234375 255.816406 294.097656 256.492188 292.914062 257.285156 L 291.980469 257.9375 " fill-opacity="1" fill-rule="nonzero"/><path fill="rgb(9.799194%, 68.629456%, 81.959534%)" d="M 236.074219 259.441406 L 241.394531 259.441406 C 242.824219 259.441406 244.960938 258.734375 246.144531 257.9375 L 247.078125 257.285156 C 248.261719 256.492188 248.0625 255.816406 246.636719 255.816406 L 241.3125 255.816406 C 239.886719 255.816406 237.75 256.492188 236.566406 257.285156 L 235.628906 257.9375 C 234.445312 258.734375 234.644531 259.441406 236.074219 259.441406 " fill-opacity="1" fill-rule="nonzero"/><path fill="rgb(9.799194%, 68.629456%, 81.959534%)" d="M 249.445312 257.9375 C 248.261719 258.734375 248.464844 259.441406 249.890625 259.441406 L 255.210938 259.441406 C 256.640625 259.441406 258.777344 258.734375 259.960938 257.9375 L 260.894531 257.285156 C 262.078125 256.492188 261.878906 255.816406 260.453125 255.816406 L 255.128906 255.816406 C 253.703125 255.816406 251.566406 256.492188 250.382812 257.285156 L 249.445312 257.9375 " fill-opacity="1" fill-rule="nonzero"/><path fill="rgb(9.799194%, 68.629456%, 81.959534%)" d="M 263.804688 257.9375 C 262.621094 258.734375 262.820312 259.441406 264.25 259.441406 L 269.570312 259.441406 C 270.996094 259.441406 273.132812 258.734375 274.316406 257.9375 L 275.253906 257.285156 C 276.4375 256.492188 276.238281 255.816406 274.8125 255.816406 L 269.488281 255.816406 C 268.0625 255.816406 265.925781 256.492188 264.742188 257.285156 L 263.804688 257.9375 " fill-opacity="1" fill-rule="nonzero"/><path fill="rgb(9.799194%, 68.629456%, 81.959534%)" d="M 277.890625 257.9375 C 276.707031 258.734375 276.910156 259.441406 278.335938 259.441406 L 283.65625 259.441406 C 285.085938 259.441406 287.222656 258.734375 288.40625 257.9375 L 289.339844 257.285156 C 290.523438 256.492188 290.324219 255.816406 288.898438 255.816406 L 283.574219 255.816406 C 282.148438 255.816406 280.011719 256.492188 278.828125 257.285156 L 277.890625 257.9375 " fill-opacity="1" fill-rule="nonzero"/><path fill="rgb(9.799194%, 68.629456%, 81.959534%)" d="M 351.210938 259.441406 L 356.535156 259.441406 C 357.960938 259.441406 360.097656 258.734375 361.28125 257.9375 L 362.214844 257.285156 C 363.402344 256.492188 363.203125 255.816406 361.773438 255.816406 L 356.449219 255.816406 C 355.023438 255.816406 352.886719 256.492188 351.703125 257.285156 L 350.769531 257.9375 C 349.585938 258.734375 349.78125 259.441406 351.210938 259.441406 " fill-opacity="1" fill-rule="nonzero"/><path fill="rgb(9.799194%, 68.629456%, 81.959534%)" d="M 365.296875 259.441406 L 370.621094 259.441406 C 372.046875 259.441406 374.183594 258.734375 375.367188 257.9375 L 376.304688 257.285156 C 377.488281 256.492188 377.289062 255.816406 375.859375 255.816406 L 370.539062 255.816406 C 369.113281 255.816406 366.976562 256.492188 365.792969 257.285156 L 364.855469 257.9375 C 363.671875 258.734375 363.871094 259.441406 365.296875 259.441406 " fill-opacity="1" fill-rule="nonzero"/><path fill="rgb(9.799194%, 68.629456%, 81.959534%)" d="M 379.386719 259.441406 L 384.707031 259.441406 C 386.136719 259.441406 388.273438 258.734375 389.457031 257.9375 L 390.390625 257.285156 C 391.574219 256.492188 391.375 255.816406 389.949219 255.816406 L 384.628906 255.816406 C 383.199219 255.816406 381.0625 256.492188 379.878906 257.285156 L 378.941406 257.9375 C 377.757812 258.734375 377.960938 259.441406 379.386719 259.441406 " fill-opacity="1" fill-rule="nonzero"/><path fill="rgb(9.799194%, 68.629456%, 81.959534%)" d="M 393.472656 259.441406 L 398.796875 259.441406 C 400.222656 259.441406 402.359375 258.734375 403.542969 257.9375 L 404.480469 257.285156 C 405.664062 256.492188 405.464844 255.816406 404.039062 255.816406 L 398.714844 255.816406 C 397.285156 255.816406 395.148438 256.492188 393.96875 257.285156 L 393.03125 257.9375 C 391.847656 258.734375 392.046875 259.441406 393.472656 259.441406 " fill-opacity="1" fill-rule="nonzero"/><path fill="rgb(9.799194%, 68.629456%, 81.959534%)" d="M 407.5625 259.441406 L 412.882812 259.441406 C 414.308594 259.441406 416.445312 258.734375 417.632812 257.9375 L 418.566406 257.285156 C 419.75 256.492188 419.550781 255.816406 418.125 255.816406 L 412.800781 255.816406 C 411.375 255.816406 409.238281 256.492188 408.054688 257.285156 L 407.117188 257.9375 C 405.933594 258.734375 406.132812 259.441406 407.5625 259.441406 " fill-opacity="1" fill-rule="nonzero"/><path fill="rgb(9.799194%, 68.629456%, 81.959534%)" d="M 262.890625 250.121094 L 257.566406 250.121094 C 256.140625 250.121094 254.003906 250.796875 252.820312 251.59375 L 251.886719 252.25 C 250.699219 253.046875 250.898438 253.746094 252.328125 253.746094 L 257.652344 253.746094 C 259.078125 253.746094 261.214844 253.046875 262.398438 252.25 L 263.332031 251.59375 C 264.519531 250.796875 264.320312 250.121094 262.890625 250.121094 " fill-opacity="1" fill-rule="nonzero"/><path fill="rgb(9.799194%, 68.629456%, 81.959534%)" d="M 276.707031 250.121094 L 271.382812 250.121094 C 269.957031 250.121094 267.820312 250.796875 266.636719 251.59375 L 265.703125 252.25 C 264.519531 253.046875 264.714844 253.746094 266.144531 253.746094 L 271.46875 253.746094 C 272.894531 253.746094 275.03125 253.046875 276.214844 252.25 L 277.148438 251.59375 C 278.335938 250.796875 278.136719 250.121094 276.707031 250.121094 " fill-opacity="1" fill-rule="nonzero"/><path fill="rgb(9.799194%, 68.629456%, 81.959534%)" d="M 291.261719 250.121094 L 285.941406 250.121094 C 284.515625 250.121094 282.375 250.796875 281.191406 251.59375 L 280.257812 252.25 C 279.074219 253.046875 279.273438 253.746094 280.699219 253.746094 L 286.023438 253.746094 C 287.449219 253.746094 289.585938 253.046875 290.769531 252.25 L 291.707031 251.59375 C 292.890625 250.796875 292.691406 250.121094 291.261719 250.121094 " fill-opacity="1" fill-rule="nonzero"/><path fill="rgb(9.799194%, 68.629456%, 81.959534%)" d="M 300.210938 253.746094 C 301.636719 253.746094 303.773438 253.046875 304.957031 252.25 L 305.890625 251.59375 C 307.078125 250.796875 306.875 250.121094 305.449219 250.121094 L 300.125 250.121094 C 298.699219 250.121094 296.5625 250.796875 295.378906 251.59375 L 294.445312 252.25 C 293.257812 253.046875 293.457031 253.746094 294.886719 253.746094 L 300.210938 253.746094 " fill-opacity="1" fill-rule="nonzero"/><path fill="rgb(9.799194%, 68.629456%, 81.959534%)" d="M 314.394531 253.746094 C 315.824219 253.746094 317.957031 253.046875 319.140625 252.25 L 320.078125 251.59375 C 321.261719 250.796875 321.0625 250.121094 319.632812 250.121094 L 314.3125 250.121094 C 312.882812 250.121094 310.746094 250.796875 309.5625 251.59375 L 308.628906 252.25 C 307.445312 253.046875 307.644531 253.746094 309.070312 253.746094 L 314.394531 253.746094 " fill-opacity="1" fill-rule="nonzero"/><path fill="rgb(9.799194%, 68.629456%, 81.959534%)" d="M 328.582031 253.746094 C 330.007812 253.746094 332.144531 253.046875 333.328125 252.25 L 334.261719 251.59375 C 335.449219 250.796875 335.25 250.121094 333.820312 250.121094 L 328.496094 250.121094 C 327.070312 250.121094 324.933594 250.796875 323.75 251.59375 L 322.816406 252.25 C 321.628906 253.046875 321.828125 253.746094 323.257812 253.746094 L 328.582031 253.746094 " fill-opacity="1" fill-rule="nonzero"/><path fill="rgb(9.799194%, 68.629456%, 81.959534%)" d="M 342.765625 253.746094 C 344.195312 253.746094 346.332031 253.046875 347.515625 252.25 L 348.449219 251.59375 C 349.632812 250.796875 349.433594 250.121094 348.007812 250.121094 L 342.683594 250.121094 C 341.253906 250.121094 339.121094 250.796875 337.9375 251.59375 L 337 252.25 C 335.816406 253.046875 336.015625 253.746094 337.445312 253.746094 L 342.765625 253.746094 " fill-opacity="1" fill-rule="nonzero"/><path fill="rgb(9.799194%, 68.629456%, 81.959534%)" d="M 356.953125 253.746094 C 358.378906 253.746094 360.515625 253.046875 361.699219 252.25 L 362.636719 251.59375 C 363.820312 250.796875 363.621094 250.121094 362.191406 250.121094 L 356.871094 250.121094 C 355.441406 250.121094 353.304688 250.796875 352.121094 251.59375 L 351.1875 252.25 C 350.003906 253.046875 350.203125 253.746094 351.628906 253.746094 L 356.953125 253.746094 " fill-opacity="1" fill-rule="nonzero"/><path fill="rgb(9.799194%, 68.629456%, 81.959534%)" d="M 371.140625 253.746094 C 372.566406 253.746094 374.703125 253.046875 375.886719 252.25 L 376.820312 251.59375 C 378.007812 250.796875 377.804688 250.121094 376.378906 250.121094 L 371.054688 250.121094 C 369.628906 250.121094 367.492188 250.796875 366.308594 251.59375 L 365.375 252.25 C 364.1875 253.046875 364.386719 253.746094 365.816406 253.746094 L 371.140625 253.746094 " fill-opacity="1" fill-rule="nonzero"/><path fill="rgb(9.799194%, 68.629456%, 81.959534%)" d="M 385.324219 253.746094 C 386.753906 253.746094 388.890625 253.046875 390.070312 252.25 L 391.007812 251.59375 C 392.191406 250.796875 391.992188 250.121094 390.566406 250.121094 L 385.242188 250.121094 C 383.8125 250.121094 381.675781 250.796875 380.496094 251.59375 L 379.558594 252.25 C 378.375 253.046875 378.574219 253.746094 380 253.746094 L 385.324219 253.746094 " fill-opacity="1" fill-rule="nonzero"/><path fill="rgb(9.799194%, 68.629456%, 81.959534%)" d="M 399.878906 253.746094 C 401.304688 253.746094 403.445312 253.046875 404.628906 252.25 L 405.5625 251.59375 C 406.746094 250.796875 406.546875 250.121094 405.121094 250.121094 L 399.796875 250.121094 C 398.371094 250.121094 396.234375 250.796875 395.050781 251.59375 L 394.113281 252.25 C 392.929688 253.046875 393.128906 253.746094 394.558594 253.746094 L 399.878906 253.746094 " fill-opacity="1" fill-rule="nonzero"/><path fill="rgb(9.799194%, 68.629456%, 81.959534%)" d="M 413.695312 253.746094 C 415.125 253.746094 417.261719 253.046875 418.445312 252.25 L 419.378906 251.59375 C 420.5625 250.796875 420.363281 250.121094 418.9375 250.121094 L 413.613281 250.121094 C 412.1875 250.121094 410.050781 250.796875 408.867188 251.59375 L 407.929688 252.25 C 406.746094 253.046875 406.945312 253.746094 408.375 253.746094 L 413.695312 253.746094 " fill-opacity="1" fill-rule="nonzero"/><path fill="rgb(9.799194%, 68.629456%, 81.959534%)" d="M 228.804688 261.515625 L 413.570312 261.515625 L 413.570312 262.550781 L 228.804688 262.550781 L 228.804688 261.515625 " fill-opacity="1" fill-rule="nonzero"/><path fill="rgb(9.799194%, 68.629456%, 81.959534%)" d="M 247.488281 244.941406 L 440.558594 244.941406 L 440.558594 245.457031 L 247.488281 245.457031 L 247.488281 244.941406 " fill-opacity="1" fill-rule="nonzero"/><path fill="rgb(9.799194%, 68.629456%, 81.959534%)" d="M 443.535156 251.039062 C 443.40625 250.855469 443.152344 250.808594 442.96875 250.9375 L 441.066406 252.253906 C 440.878906 252.382812 440.835938 252.632812 440.964844 252.820312 C 441.042969 252.933594 441.167969 252.992188 441.296875 252.992188 C 441.378906 252.992188 441.457031 252.96875 441.53125 252.917969 L 443.429688 251.601562 C 443.617188 251.476562 443.664062 251.222656 443.535156 251.039062 " fill-opacity="1" fill-rule="nonzero"/><path fill="rgb(9.799194%, 68.629456%, 81.959534%)" d="M 413.761719 272.078125 L 413.300781 271.410156 L 421.707031 265.582031 L 422.171875 266.25 L 413.761719 272.078125 " fill-opacity="1" fill-rule="nonzero"/><path fill="rgb(9.799194%, 68.629456%, 81.959534%)" d="M 403.277344 279.332031 L 402.816406 278.664062 L 410.238281 273.519531 L 410.703125 274.1875 L 403.277344 279.332031 " fill-opacity="1" fill-rule="nonzero"/><path fill="rgb(9.799194%, 68.629456%, 81.959534%)" d="M 343.613281 125.929688 C 344.757812 125.929688 345.6875 126.855469 345.6875 128 C 345.6875 129.144531 344.757812 130.070312 343.613281 130.070312 C 342.46875 130.070312 341.542969 129.144531 341.542969 128 C 341.542969 126.855469 342.46875 125.929688 343.613281 125.929688 " fill-opacity="1" fill-rule="nonzero"/><path fill="rgb(9.799194%, 68.629456%, 81.959534%)" d="M 212.355469 141.84375 C 216.183594 155.953125 215.230469 172.238281 203.09375 182.078125 C 183.382812 198.058594 154.671875 192.988281 131.726562 189.777344 C 118.164062 187.878906 104.839844 186.96875 91.367188 190.140625 C 77.574219 193.390625 65.316406 199.515625 53 206.34375 C 38.304688 214.488281 23.78125 223.070312 8.542969 230.070312 L 8.542969 241.136719 L 11.734375 243.140625 L 228.820312 202.890625 L 233.441406 199.703125 L 233.441406 81.625 C 233.441406 79.863281 230.515625 77.421875 228.757812 77.746094 L 151.28125 93.398438 C 163.078125 95.449219 174.632812 98.886719 184.792969 104.902344 C 198.53125 113.035156 208.175781 126.445312 212.355469 141.84375 " fill-opacity="1" fill-rule="nonzero"/><g clip-path="url(#clip-1)"><path fill="rgb(7.449341%, 21.179199%, 36.079407%)" d="M 232.015625 199.703125 L 228.820312 200.296875 L 11.734375 240.542969 L 8.542969 241.136719 L 8.542969 123.054688 C 8.542969 121.296875 9.976562 119.601562 11.734375 119.273438 L 151.28125 93.398438 L 228.820312 79.023438 C 230.582031 78.699219 232.015625 79.863281 232.015625 81.625 Z M 5.804688 123.5625 L 5.804688 257.601562 C 5.804688 258.960938 6.273438 260.128906 7.046875 260.988281 C 6.789062 261.03125 6.527344 261.054688 6.277344 261.054688 C 4.191406 261.054688 2.734375 259.566406 2.734375 257.433594 L 2.734375 121.679688 C 2.734375 119.042969 4.972656 116.398438 7.621094 115.90625 L 207.460938 78.859375 C 207.554688 78.839844 217.046875 77.121094 222.242188 76.117188 C 223.566406 75.859375 224.785156 75.730469 225.863281 75.730469 C 227.21875 75.730469 228.269531 75.929688 229.089844 76.253906 C 229 76.265625 228.914062 76.273438 228.820312 76.289062 L 11.734375 116.535156 C 8.464844 117.144531 5.804688 120.296875 5.804688 123.5625 Z M 234.585938 79.789062 C 234.355469 76.539062 231.980469 72.996094 225.863281 72.996094 C 224.613281 72.996094 223.21875 73.140625 221.722656 73.429688 C 216.542969 74.433594 207.066406 76.148438 206.96875 76.167969 L 7.125 113.21875 C 3.195312 113.945312 0 117.742188 0 121.679688 L 0 257.433594 C 0 261.054688 2.699219 263.789062 6.273438 263.789062 C 6.71875 263.789062 7.171875 263.746094 7.621094 263.664062 L 102.542969 246.066406 L 102.542969 257.199219 C 84.777344 261.523438 59.890625 269.023438 58.976562 277.253906 C 58.96875 277.304688 58.953125 277.359375 58.949219 277.414062 L 58.527344 282.882812 C 58.523438 282.917969 58.523438 282.953125 58.523438 282.992188 C 58.523438 284.316406 59.121094 285.515625 60.253906 286.457031 C 63.046875 288.777344 69.476562 289.648438 77.421875 289.648438 C 90.851562 289.648438 108.605469 287.160156 120.429688 284.96875 C 122.921875 284.503906 181.519531 273.492188 181.515625 260.636719 L 181.832031 255.320312 C 181.832031 255.316406 181.832031 255.3125 181.832031 255.304688 C 181.832031 255.292969 181.835938 255.28125 181.835938 255.265625 C 181.835938 250.785156 175.730469 248.632812 163.175781 248.632812 C 155.191406 248.632812 144.65625 249.558594 133.503906 251.160156 L 133.503906 240.328125 L 227.488281 222.902344 C 228.667969 222.683594 229.78125 222.183594 230.761719 221.488281 C 233.078125 220.253906 234.75 217.742188 234.75 215.15625 L 234.75 81.117188 C 234.75 80.648438 234.691406 80.207031 234.585938 79.789062 " fill-opacity="1" fill-rule="nonzero"/></g><path fill="rgb(7.449341%, 21.179199%, 36.079407%)" d="M 162.71875 223 C 162.71875 220.746094 160.667969 219.28125 158.15625 219.746094 L 82.449219 233.78125 C 79.941406 234.246094 77.890625 236.472656 77.890625 238.730469 C 77.890625 240.988281 79.941406 242.453125 82.449219 241.988281 L 158.15625 227.953125 C 160.667969 227.484375 162.71875 225.257812 162.71875 223 " fill-opacity="1" fill-rule="nonzero"/><path fill="rgb(7.449341%, 21.179199%, 36.079407%)" d="M 11.09375 255.21875 L 16.566406 254.203125 C 17.070312 254.109375 17.476562 253.625 17.476562 253.121094 L 17.476562 252.210938 C 17.476562 251.707031 17.070312 251.375 16.566406 251.46875 L 11.09375 252.480469 C 10.589844 252.574219 10.179688 253.058594 10.179688 253.5625 L 10.179688 254.476562 C 10.179688 254.980469 10.589844 255.3125 11.09375 255.21875 " fill-opacity="1" fill-rule="nonzero"/><path fill="rgb(7.449341%, 21.179199%, 36.079407%)" d="M 230.914062 213.550781 L 230.914062 212.636719 C 230.914062 212.136719 230.507812 211.800781 230.003906 211.894531 L 224.527344 212.910156 C 224.027344 213.003906 223.617188 213.488281 223.617188 213.992188 L 223.617188 214.902344 C 223.617188 215.40625 224.027344 215.738281 224.527344 215.644531 L 230.003906 214.628906 C 230.507812 214.535156 230.914062 214.054688 230.914062 213.550781 " fill-opacity="1" fill-rule="nonzero"/><path fill="rgb(7.449341%, 21.179199%, 36.079407%)" d="M 212.671875 217.84375 L 218.144531 216.828125 C 218.648438 216.734375 219.054688 216.25 219.054688 215.75 L 219.054688 214.835938 C 219.054688 214.332031 218.648438 214 218.144531 214.09375 L 212.671875 215.109375 C 212.167969 215.203125 211.757812 215.6875 211.757812 216.1875 L 211.757812 217.101562 C 211.757812 217.605469 212.167969 217.9375 212.671875 217.84375 " fill-opacity="1" fill-rule="nonzero"/><path fill="rgb(7.449341%, 21.179199%, 36.079407%)" d="M 198.992188 220.378906 L 204.464844 219.367188 C 204.964844 219.273438 205.375 218.789062 205.375 218.285156 L 205.375 217.375 C 205.375 216.867188 204.964844 216.535156 204.464844 216.628906 L 198.992188 217.644531 C 198.488281 217.738281 198.078125 218.222656 198.078125 218.726562 L 198.078125 219.636719 C 198.078125 220.140625 198.488281 220.472656 198.992188 220.378906 " fill-opacity="1" fill-rule="nonzero"/><path fill="rgb(98.429871%, 99.609375%, 99.609375%)" d="M 107.054688 244.757812 L 105.277344 245.085938 L 105.277344 256.542969 C 105.882812 256.402344 106.472656 256.261719 107.054688 256.128906 L 107.054688 244.757812 " fill-opacity="1" fill-rule="nonzero"/><path fill="rgb(98.429871%, 99.609375%, 99.609375%)" d="M 120.640625 279.707031 C 104.828125 282.640625 88.738281 284.578125 77.605469 284.578125 C 77.605469 284.578125 77.605469 284.578125 77.601562 284.578125 C 69.589844 284.578125 64.207031 283.605469 61.359375 281.738281 L 61.261719 283.035156 C 61.269531 283.355469 61.367188 283.824219 62.003906 284.355469 C 67.542969 288.953125 95.980469 286.71875 119.929688 282.277344 C 148.234375 277.03125 178.78125 267.234375 178.78125 260.554688 L 178.789062 260.425781 C 166.726562 270.914062 122.792969 279.308594 120.640625 279.707031 " fill-opacity="1" fill-rule="nonzero"/><path fill="rgb(98.429871%, 99.609375%, 99.609375%)" d="M 109.183594 261.195312 C 109.808594 261.714844 110.589844 261.988281 111.4375 261.988281 C 111.691406 261.988281 111.945312 261.964844 112.203125 261.914062 L 128.988281 258.878906 C 131.246094 258.460938 133.085938 256.28125 133.085938 254.023438 C 133.085938 253.769531 132.882812 253.566406 132.628906 253.566406 C 132.378906 253.566406 132.171875 253.769531 132.171875 254.023438 C 132.171875 255.863281 130.671875 257.640625 128.828125 257.984375 L 112.042969 261.019531 C 111.175781 261.179688 110.367188 260.992188 109.765625 260.496094 C 109.179688 260.007812 108.859375 259.28125 108.859375 258.4375 C 108.859375 258.183594 108.65625 257.980469 108.40625 257.980469 C 108.152344 257.980469 107.949219 258.183594 107.949219 258.4375 C 107.949219 259.554688 108.386719 260.535156 109.183594 261.195312 " fill-opacity="1" fill-rule="nonzero"/><path fill="rgb(9.799194%, 68.629456%, 81.959534%)" d="M 275.792969 376.449219 L 275.796875 376.453125 C 275.796875 376.453125 272.074219 347.835938 247.007812 331.152344 C 225.605469 316.90625 195.933594 308.019531 179.296875 310.863281 C 176.449219 311.347656 175.136719 311.828125 172.003906 313.386719 C 168.871094 314.945312 158.511719 318.761719 156.222656 320.25 C 155.589844 320.660156 154.304688 321.601562 152.742188 322.773438 L 144.609375 320.125 C 144.609375 320.125 144.050781 320.285156 143.476562 320.820312 C 143.476562 320.820312 142.132812 320.46875 141.773438 321.238281 C 141.414062 322.011719 142.425781 322.628906 142.425781 322.628906 C 142.246094 323.382812 142.390625 323.914062 142.390625 323.914062 L 146.40625 327.574219 C 144.011719 329.398438 141.964844 330.949219 141.339844 331.371094 C 139.722656 332.453125 137.464844 334.429688 136.527344 336.359375 C 133.726562 342.152344 136.324219 349.929688 138.804688 355.894531 C 140.527344 360.046875 144.402344 361.769531 147.964844 363.738281 C 151.59375 365.746094 155.15625 367.988281 158.753906 370.074219 C 166.128906 374.351562 173.507812 378.632812 180.859375 382.949219 C 182.488281 383.902344 184.175781 384.808594 185.769531 385.820312 C 207.65625 398.519531 252.109375 404.765625 268.453125 395.34375 C 275.488281 391.289062 277.507812 384.210938 275.792969 376.449219 " fill-opacity="1" fill-rule="nonzero"/><path fill="rgb(7.449341%, 21.179199%, 36.079407%)" d="M 186.996094 323.804688 C 187.035156 323.8125 187.074219 323.820312 187.117188 323.828125 C 187.078125 323.820312 187.035156 323.8125 186.996094 323.804688 " fill-opacity="1" fill-rule="nonzero"/><path fill="rgb(7.449341%, 21.179199%, 36.079407%)" d="M 192.980469 325.152344 C 192.960938 325.148438 192.941406 325.140625 192.917969 325.136719 C 192.941406 325.140625 192.957031 325.148438 192.980469 325.152344 " fill-opacity="1" fill-rule="nonzero"/><path fill="rgb(7.449341%, 21.179199%, 36.079407%)" d="M 189.566406 324.3125 L 189.5625 324.3125 C 189.625 324.328125 189.683594 324.339844 189.742188 324.351562 C 189.683594 324.339844 189.625 324.328125 189.566406 324.3125 " fill-opacity="1" fill-rule="nonzero"/><path fill="rgb(7.449341%, 21.179199%, 36.079407%)" d="M 188.019531 323.992188 C 187.960938 323.980469 187.902344 323.972656 187.84375 323.960938 C 187.902344 323.972656 187.960938 323.984375 188.015625 323.992188 L 188.019531 323.992188 " fill-opacity="1" fill-rule="nonzero"/><path fill="rgb(7.449341%, 21.179199%, 36.079407%)" d="M 192.035156 324.902344 C 192.066406 324.910156 192.101562 324.921875 192.132812 324.929688 C 192.101562 324.921875 192.070312 324.910156 192.035156 324.902344 " fill-opacity="1" fill-rule="nonzero"/><path fill="rgb(7.449341%, 21.179199%, 36.079407%)" d="M 201.746094 328.421875 C 201.746094 328.421875 201.742188 328.421875 201.742188 328.417969 C 201.742188 328.421875 201.746094 328.421875 201.746094 328.421875 " fill-opacity="1" fill-rule="nonzero"/><path fill="rgb(7.449341%, 21.179199%, 36.079407%)" d="M 194.421875 325.5625 C 194.449219 325.570312 194.472656 325.578125 194.5 325.585938 C 194.472656 325.578125 194.449219 325.570312 194.421875 325.5625 " fill-opacity="1" fill-rule="nonzero"/><path fill="rgb(7.449341%, 21.179199%, 36.079407%)" d="M 203.921875 331.738281 L 202.691406 332.746094 C 202.308594 332.847656 201.808594 332.929688 201.175781 332.964844 L 203.824219 330.792969 C 203.890625 330.90625 203.945312 331.019531 203.976562 331.132812 C 203.996094 331.214844 204.039062 331.417969 203.921875 331.738281 Z M 199.414062 332.953125 C 199.039062 332.933594 198.660156 332.902344 198.277344 332.859375 L 202.332031 329.53125 C 202.582031 329.683594 202.816406 329.835938 203.023438 329.992188 Z M 196.636719 332.617188 C 196.296875 332.554688 195.964844 332.488281 195.636719 332.410156 L 200.378906 328.519531 C 200.640625 328.640625 200.90625 328.769531 201.167969 328.898438 Z M 194.171875 332.023438 C 193.859375 331.929688 193.554688 331.839844 193.257812 331.746094 L 198.300781 327.609375 C 198.582031 327.71875 198.859375 327.832031 199.136719 327.949219 Z M 190.976562 331.003906 L 196.085938 326.808594 C 196.371094 326.90625 196.664062 327.003906 196.96875 327.113281 L 191.863281 331.300781 C 191.539062 331.195312 191.242188 331.09375 190.976562 331.003906 Z M 188.777344 330.191406 L 193.773438 326.089844 C 194.09375 326.183594 194.40625 326.273438 194.691406 326.363281 L 189.628906 330.519531 C 189.355469 330.417969 189.070312 330.308594 188.777344 330.191406 Z M 186.664062 329.3125 L 191.371094 325.445312 C 191.695312 325.527344 192.015625 325.609375 192.324219 325.691406 L 187.484375 329.664062 C 187.210938 329.550781 186.9375 329.433594 186.664062 329.3125 Z M 184.628906 328.367188 L 188.886719 324.871094 C 189.21875 324.941406 189.546875 325.011719 189.875 325.085938 L 185.417969 328.742188 C 185.152344 328.621094 184.886719 328.492188 184.628906 328.367188 Z M 182.683594 327.34375 L 186.292969 324.382812 C 186.632812 324.4375 186.976562 324.5 187.324219 324.5625 L 183.433594 327.753906 C 183.179688 327.617188 182.925781 327.480469 182.683594 327.34375 Z M 180.898438 326.191406 L 183.503906 324.054688 C 183.867188 324.082031 184.242188 324.113281 184.632812 324.15625 L 181.574219 326.667969 C 181.332031 326.507812 181.105469 326.347656 180.898438 326.191406 Z M 179.722656 324.933594 C 179.652344 324.761719 179.683594 324.691406 179.699219 324.660156 C 179.761719 324.527344 180.074219 324.125 181.597656 324.03125 L 179.984375 325.351562 C 179.867188 325.207031 179.777344 325.066406 179.722656 324.933594 Z M 196.714844 326.292969 C 197.003906 326.390625 197.296875 326.496094 197.585938 326.605469 C 197.296875 326.496094 197.003906 326.394531 196.714844 326.292969 Z M 198.910156 327.109375 C 198.914062 327.109375 198.917969 327.113281 198.921875 327.113281 C 198.917969 327.113281 198.914062 327.109375 198.910156 327.109375 Z M 199.730469 327.464844 C 199.707031 327.453125 199.683594 327.445312 199.664062 327.433594 C 199.683594 327.445312 199.707031 327.453125 199.730469 327.464844 Z M 201.746094 328.421875 C 201.742188 328.417969 201.734375 328.414062 201.726562 328.414062 C 201.730469 328.414062 201.738281 328.417969 201.742188 328.417969 C 201.226562 328.15625 200.679688 327.894531 200.125 327.636719 C 198.667969 326.953125 197.027344 326.386719 195.585938 325.917969 C 195.503906 325.894531 195.414062 325.863281 195.332031 325.839844 C 195.25 325.8125 195.167969 325.789062 195.085938 325.761719 C 195.132812 325.777344 195.179688 325.792969 195.230469 325.804688 C 195 325.734375 194.757812 325.660156 194.5 325.582031 C 194.648438 325.628906 194.792969 325.671875 194.929688 325.714844 C 194.765625 325.664062 194.59375 325.613281 194.421875 325.5625 C 193.925781 325.414062 193.386719 325.261719 192.8125 325.105469 C 192.785156 325.101562 192.761719 325.09375 192.738281 325.089844 C 192.222656 324.949219 191.683594 324.8125 191.125 324.675781 C 191.085938 324.664062 191.042969 324.65625 191.003906 324.644531 C 190.851562 324.609375 190.695312 324.570312 190.542969 324.535156 C 190.507812 324.527344 190.472656 324.519531 190.433594 324.511719 C 190.363281 324.496094 190.296875 324.476562 190.226562 324.460938 C 190.203125 324.457031 190.183594 324.453125 190.160156 324.445312 C 189.875 324.378906 189.585938 324.316406 189.296875 324.253906 C 189.265625 324.246094 189.230469 324.238281 189.199219 324.234375 C 188.945312 324.179688 188.691406 324.125 188.441406 324.074219 C 188.386719 324.0625 188.335938 324.054688 188.28125 324.042969 C 187.714844 323.929688 187.148438 323.828125 186.585938 323.734375 C 186.527344 323.726562 186.472656 323.714844 186.414062 323.707031 C 186.167969 323.667969 185.925781 323.632812 185.683594 323.597656 C 185.648438 323.589844 185.613281 323.585938 185.578125 323.582031 C 185.472656 323.566406 185.367188 323.554688 185.261719 323.539062 C 185.25 323.539062 185.238281 323.539062 185.226562 323.535156 C 185.074219 323.515625 184.917969 323.496094 184.769531 323.476562 C 184.726562 323.472656 184.683594 323.46875 184.640625 323.464844 C 184.578125 323.457031 184.515625 323.453125 184.453125 323.445312 C 184.417969 323.441406 184.386719 323.4375 184.355469 323.433594 C 184.230469 323.421875 184.105469 323.410156 183.984375 323.398438 C 183.925781 323.394531 183.871094 323.386719 183.816406 323.382812 C 183.316406 323.34375 182.839844 323.320312 182.390625 323.320312 C 182.367188 323.320312 182.339844 323.316406 182.316406 323.316406 C 182.238281 323.316406 182.160156 323.320312 182.085938 323.320312 C 182.058594 323.320312 182.03125 323.320312 182.003906 323.320312 C 181.863281 323.324219 181.734375 323.328125 181.601562 323.335938 C 181.566406 323.339844 181.523438 323.339844 181.488281 323.34375 C 181.359375 323.355469 181.238281 323.367188 181.117188 323.378906 C 181.085938 323.382812 181.054688 323.386719 181.019531 323.390625 C 180.910156 323.40625 180.800781 323.421875 180.699219 323.441406 C 180.679688 323.445312 180.660156 323.449219 180.640625 323.453125 C 180.53125 323.472656 180.429688 323.496094 180.328125 323.523438 C 180.300781 323.53125 180.273438 323.539062 180.246094 323.546875 C 180.148438 323.574219 180.054688 323.605469 179.96875 323.640625 C 179.945312 323.648438 179.921875 323.65625 179.902344 323.667969 C 179.816406 323.699219 179.738281 323.738281 179.667969 323.777344 C 179.65625 323.78125 179.648438 323.789062 179.636719 323.792969 C 179.5625 323.835938 179.496094 323.882812 179.433594 323.929688 C 179.417969 323.941406 179.402344 323.957031 179.386719 323.96875 C 179.324219 324.019531 179.269531 324.074219 179.222656 324.128906 C 179.210938 324.144531 179.203125 324.160156 179.191406 324.171875 C 179.144531 324.234375 179.105469 324.296875 179.074219 324.363281 C 179.074219 324.363281 179.070312 324.367188 179.070312 324.371094 C 178.949219 324.632812 178.96875 324.914062 179.089844 325.207031 C 179.105469 325.242188 179.125 325.277344 179.140625 325.3125 C 179.21875 325.464844 179.324219 325.621094 179.453125 325.78125 C 179.457031 325.78125 179.457031 325.785156 179.457031 325.785156 C 179.578125 325.929688 179.714844 326.078125 179.875 326.226562 C 182.40625 328.582031 189.488281 331.203125 189.488281 331.203125 C 189.488281 331.203125 191.804688 332.078125 194.570312 332.851562 C 194.585938 332.855469 194.597656 332.859375 194.609375 332.863281 C 194.8125 332.917969 195.023438 332.976562 195.238281 333.027344 C 195.265625 333.035156 195.292969 333.039062 195.320312 333.046875 C 195.523438 333.097656 195.730469 333.140625 195.9375 333.1875 C 195.9375 333.1875 195.9375 333.1875 195.941406 333.1875 C 195.949219 333.1875 195.957031 333.191406 195.964844 333.191406 C 195.992188 333.199219 196.023438 333.203125 196.050781 333.207031 C 196.265625 333.253906 196.480469 333.292969 196.699219 333.332031 C 196.734375 333.339844 196.765625 333.34375 196.800781 333.347656 C 197.015625 333.386719 197.230469 333.417969 197.441406 333.449219 C 197.480469 333.457031 197.519531 333.460938 197.558594 333.464844 C 197.769531 333.492188 197.976562 333.519531 198.1875 333.542969 C 198.230469 333.550781 198.269531 333.554688 198.3125 333.558594 C 198.519531 333.578125 198.722656 333.597656 198.921875 333.613281 C 198.96875 333.617188 199.015625 333.621094 199.058594 333.625 C 199.257812 333.636719 199.457031 333.648438 199.648438 333.660156 C 199.695312 333.660156 199.738281 333.660156 199.785156 333.664062 C 199.976562 333.667969 200.167969 333.671875 200.351562 333.675781 C 200.371094 333.675781 200.386719 333.675781 200.40625 333.675781 C 202.1875 333.675781 203.65625 333.382812 204.171875 332.6875 C 204.546875 332.183594 204.703125 331.726562 204.691406 331.300781 C 204.65625 330.152344 203.371094 329.257812 201.746094 328.421875 " fill-opacity="1" fill-rule="nonzero"/><path fill="rgb(7.449341%, 21.179199%, 36.079407%)" d="M 195.332031 325.839844 C 195.296875 325.828125 195.261719 325.816406 195.230469 325.804688 C 195.261719 325.816406 195.296875 325.828125 195.332031 325.839844 " fill-opacity="1" fill-rule="nonzero"/><path fill="rgb(7.449341%, 21.179199%, 36.079407%)" d="M 184.273438 323.425781 L 184.269531 323.425781 C 184.296875 323.429688 184.328125 323.433594 184.355469 323.4375 C 184.390625 323.441406 184.421875 323.441406 184.453125 323.445312 C 184.394531 323.441406 184.332031 323.429688 184.273438 323.425781 " fill-opacity="1" fill-rule="nonzero"/><path fill="rgb(7.449341%, 21.179199%, 36.079407%)" d="M 190.542969 324.535156 C 190.507812 324.527344 190.472656 324.519531 190.4375 324.511719 C 190.472656 324.519531 190.507812 324.527344 190.542969 324.535156 " fill-opacity="1" fill-rule="nonzero"/><path fill="rgb(7.449341%, 21.179199%, 36.079407%)" d="M 185.363281 323.554688 L 185.367188 323.554688 C 185.320312 323.546875 185.273438 323.542969 185.226562 323.539062 C 185.238281 323.539062 185.25 323.539062 185.261719 323.542969 C 185.296875 323.546875 185.332031 323.550781 185.363281 323.554688 " fill-opacity="1" fill-rule="nonzero"/><g clip-path="url(#clip-2)"><path fill="rgb(7.449341%, 21.179199%, 36.079407%)" d="M 142.808594 321.664062 C 143.011719 321.3125 143.242188 321.035156 143.476562 320.820312 C 140.53125 319.617188 137.546875 318.527344 134.515625 317.632812 C 123.816406 314.578125 113.375 312.070312 103.296875 314.847656 L 103.847656 316.84375 C 113.414062 314.210938 123.542969 316.65625 133.9375 319.621094 C 136.796875 320.464844 139.625 321.492188 142.425781 322.628906 C 142.496094 322.335938 142.613281 322.007812 142.808594 321.664062 " fill-opacity="1" fill-rule="nonzero"/></g><path fill="rgb(7.449341%, 21.179199%, 36.079407%)" d="M 211.992188 336.585938 C 211.527344 337.226562 210.4375 337.550781 208.757812 337.550781 C 202.859375 337.550781 191.976562 333.472656 191.867188 333.429688 C 191.730469 333.378906 178.285156 328.371094 176.820312 324.820312 C 176.675781 324.472656 176.671875 324.167969 176.796875 323.890625 C 177.207031 323.011719 178.742188 322.546875 181.242188 322.546875 C 186.808594 322.546875 195.851562 324.816406 200.570312 326.339844 C 205.6875 327.992188 211.691406 330.289062 212.707031 333.414062 C 213.039062 334.4375 212.804688 335.472656 211.992188 336.585938 Z M 200.785156 325.683594 C 196.023438 324.144531 186.886719 321.855469 181.242188 321.855469 C 178.375 321.855469 176.71875 322.425781 176.171875 323.601562 C 175.960938 324.054688 175.964844 324.554688 176.183594 325.085938 C 177.761719 328.914062 191.0625 333.867188 191.625 334.078125 C 192.074219 334.246094 202.734375 338.242188 208.757812 338.242188 C 210.695312 338.242188 211.9375 337.832031 212.550781 336.992188 C 213.488281 335.707031 213.761719 334.433594 213.363281 333.203125 C 212.257812 329.800781 206.382812 327.492188 200.785156 325.683594 " fill-opacity="1" fill-rule="nonzero"/><path fill="rgb(7.449341%, 21.179199%, 36.079407%)" d="M 242.539062 333.417969 C 237.871094 330.167969 232.4375 326.613281 227.054688 325.566406 L 226.921875 326.242188 C 232.171875 327.265625 237.53125 330.777344 242.140625 333.984375 C 256.457031 344 266.824219 359.191406 270.59375 375.667969 L 271.269531 375.515625 C 267.460938 358.875 256.992188 343.53125 242.539062 333.417969 " fill-opacity="1" fill-rule="nonzero"/><path fill="rgb(7.449341%, 21.179199%, 36.079407%)" d="M 271.484375 380.296875 C 270.785156 380.296875 270.785156 381.195312 271.484375 381.195312 C 271.484375 381.195312 271.832031 380.296875 271.484375 380.296875 " fill-opacity="1" fill-rule="nonzero"/><g clip-path="url(#clip-3)"><path fill="rgb(7.449341%, 21.179199%, 36.079407%)" d="M 275.328125 381.71875 C 275.222656 387.242188 272.664062 391.484375 267.933594 394.210938 C 262.941406 397.089844 254.882812 398.375 244.625 398.375 C 244.625 398.375 244.621094 398.375 244.621094 398.375 C 224.726562 398.375 200.195312 392.753906 186.328125 384.710938 C 185.261719 384.03125 184.148438 383.636719 183.070312 383.023438 C 182.507812 382.703125 181.941406 382.382812 181.386719 382.054688 C 174.035156 377.742188 166.539062 373.394531 159.277344 369.179688 C 157.878906 368.371094 156.488281 367.535156 155.09375 366.699219 C 152.933594 365.40625 150.699219 364.066406 148.464844 362.832031 C 148.09375 362.628906 147.714844 362.421875 147.339844 362.21875 C 144.164062 360.5 141.164062 358.878906 139.761719 355.496094 C 138.558594 352.597656 137.347656 349.316406 136.742188 346.089844 C 136.691406 345.820312 136.648438 345.554688 136.605469 345.289062 C 136.390625 343.910156 136.300781 342.550781 136.375 341.242188 C 136.398438 340.894531 136.429688 340.550781 136.476562 340.210938 C 136.632812 339.015625 136.949219 337.875 137.460938 336.808594 C 138.25 335.183594 140.269531 333.335938 141.917969 332.226562 C 142.636719 331.746094 145.035156 329.921875 147.808594 327.808594 C 151.417969 325.0625 155.511719 321.945312 156.785156 321.117188 C 157.132812 320.894531 157.894531 320.507812 158.941406 320.019531 C 159.683594 319.675781 160.566406 319.277344 161.546875 318.847656 C 167.660156 316.164062 177.484375 312.222656 179.472656 311.882812 C 181.46875 311.539062 183.710938 311.367188 186.132812 311.367188 C 186.464844 311.367188 186.804688 311.375 187.144531 311.382812 C 195.164062 311.53125 204.703125 313.429688 214.425781 316.625 C 225.539062 320.28125 236.878906 325.625 246.433594 331.984375 C 265.226562 344.492188 271.847656 364.070312 273.820312 371.917969 C 274.542969 374.785156 275.359375 380.070312 275.328125 381.71875 Z M 275.832031 371.472656 C 273.800781 363.390625 266.976562 343.199219 247.582031 330.289062 C 229.011719 317.929688 203.746094 309.296875 186.136719 309.296875 C 183.59375 309.296875 181.234375 309.480469 179.125 309.84375 C 176.054688 310.363281 158.066406 317.816406 155.65625 319.382812 C 154.929688 319.855469 153.382812 320.996094 151.539062 322.382812 C 151.457031 322.445312 151.375 322.507812 151.289062 322.570312 C 150.3125 323.304688 149.261719 324.101562 148.210938 324.902344 C 147.652344 325.324219 147.097656 325.75 146.550781 326.164062 C 146.242188 326.398438 145.933594 326.636719 145.628906 326.867188 C 143.355469 328.59375 141.351562 330.113281 140.761719 330.511719 C 139.019531 331.679688 136.617188 333.796875 135.59375 335.910156 C 132.632812 342.03125 135.242188 350.015625 137.84375 356.289062 C 139.53125 360.347656 142.996094 362.222656 146.351562 364.035156 C 146.722656 364.238281 147.09375 364.433594 147.460938 364.636719 C 149.660156 365.855469 151.878906 367.175781 154.027344 368.460938 C 155.425781 369.300781 156.828125 370.125 158.246094 370.949219 C 165.492188 375.152344 172.988281 379.472656 180.335938 383.78125 C 180.898438 384.113281 181.472656 384.382812 182.042969 384.707031 C 183.097656 385.308594 184.191406 385.8125 185.246094 386.484375 C 199.660156 394.847656 224.074219 400.460938 244.621094 400.460938 C 244.621094 400.460938 244.621094 400.460938 244.625 400.460938 C 255.242188 400.460938 263.664062 399.070312 268.972656 396.011719 C 274.367188 392.902344 277.28125 388.164062 277.402344 381.875 C 277.4375 380.066406 276.601562 374.523438 275.832031 371.472656 " fill-opacity="1" fill-rule="nonzero"/></g><path fill="rgb(98.429871%, 99.609375%, 99.609375%)" d="M 143.941406 325.089844 C 143.96875 325.089844 144 325.085938 144.03125 325.078125 C 144.214844 325.027344 144.324219 324.835938 144.273438 324.65625 C 144.265625 324.617188 144.046875 323.769531 144.644531 322.71875 C 145.246094 321.664062 146.1875 321.378906 146.195312 321.375 C 146.378906 321.324219 146.484375 321.132812 146.433594 320.949219 C 146.382812 320.765625 146.191406 320.660156 146.007812 320.710938 C 145.957031 320.726562 144.789062 321.070312 144.046875 322.378906 C 143.296875 323.691406 143.59375 324.792969 143.609375 324.839844 C 143.652344 324.992188 143.789062 325.089844 143.941406 325.089844 " fill-opacity="1" fill-rule="nonzero"/><path fill="rgb(98.429871%, 99.609375%, 99.609375%)" d="M 145.347656 326.191406 C 145.390625 326.34375 145.527344 326.449219 145.683594 326.449219 C 145.710938 326.449219 145.738281 326.445312 145.769531 326.4375 C 145.953125 326.390625 146.066406 326.203125 146.019531 326.019531 C 146.007812 325.976562 145.773438 324.980469 146.492188 323.75 C 147.214844 322.511719 148.316406 322.175781 148.328125 322.175781 C 148.511719 322.121094 148.617188 321.929688 148.5625 321.746094 C 148.511719 321.5625 148.320312 321.457031 148.136719 321.511719 C 148.082031 321.527344 146.761719 321.914062 145.894531 323.402344 C 145.027344 324.890625 145.335938 326.136719 145.347656 326.191406 " fill-opacity="1" fill-rule="nonzero"/><path fill="rgb(98.429871%, 99.609375%, 99.609375%)" d="M 151.289062 322.570312 C 151.210938 322.519531 151.113281 322.503906 151.015625 322.53125 C 150.945312 322.550781 149.292969 323.039062 148.210938 324.902344 C 149.261719 324.101562 150.3125 323.304688 151.289062 322.570312 " fill-opacity="1" fill-rule="nonzero"/><path fill="rgb(98.429871%, 99.609375%, 99.609375%)" d="M 199.230469 320.46875 C 203.289062 321.519531 207.804688 322.722656 211.566406 320.015625 C 213.054688 318.929688 213.960938 317.789062 214.425781 316.625 C 204.707031 313.429688 195.164062 311.53125 187.144531 311.382812 C 187.238281 311.726562 187.355469 312.058594 187.492188 312.355469 C 189.449219 316.714844 194.714844 319.417969 199.230469 320.46875 " fill-opacity="1" fill-rule="nonzero"/><path fill="rgb(98.429871%, 99.609375%, 99.609375%)" d="M 191.058594 334.570312 C 191.058594 334.570312 171.820312 327.453125 172.292969 322.871094 C 172.3125 322.695312 172.355469 322.523438 172.433594 322.355469 C 172.4375 322.351562 172.4375 322.347656 172.441406 322.34375 C 172.476562 322.269531 172.515625 322.199219 172.558594 322.128906 C 172.578125 322.105469 172.59375 322.082031 172.613281 322.058594 C 172.644531 322.007812 172.679688 321.964844 172.71875 321.917969 C 172.738281 321.894531 172.761719 321.867188 172.785156 321.84375 C 172.824219 321.800781 172.863281 321.757812 172.90625 321.71875 C 172.933594 321.695312 172.957031 321.671875 172.984375 321.648438 C 173.960938 320.8125 175.847656 320.472656 178.234375 320.472656 C 185.214844 320.472656 196.484375 323.355469 201.957031 325.125 C 206.304688 326.527344 211.773438 328.597656 214.890625 331.1875 C 215.261719 331.496094 215.601562 331.8125 215.902344 332.140625 C 217.589844 333.96875 218.015625 336.03125 216.105469 338.273438 C 215.101562 339.449219 213.273438 339.90625 211.042969 339.90625 C 209.617188 339.90625 208.03125 339.71875 206.390625 339.417969 C 206.375 339.414062 206.355469 339.414062 206.335938 339.40625 C 206.078125 339.359375 205.820312 339.308594 205.5625 339.257812 C 205.535156 339.253906 205.507812 339.246094 205.480469 339.242188 C 205.222656 339.1875 204.964844 339.132812 204.707031 339.074219 C 204.703125 339.074219 204.699219 339.074219 204.695312 339.070312 C 198 337.570312 191.058594 334.570312 191.058594 334.570312 Z M 271.769531 386.539062 C 265.902344 392.628906 254.679688 395.226562 238.40625 394.253906 C 238.050781 394.230469 237.75 394.214844 237.507812 394.203125 C 231.789062 393.917969 227.976562 390.753906 224.710938 387.378906 C 218.597656 381.0625 212.730469 376.476562 206.242188 372.949219 C 194.617188 366.632812 182.773438 360.898438 173.757812 356.605469 C 173.644531 356.554688 173.527344 356.496094 173.414062 356.441406 C 177.523438 354.445312 193.738281 346.507812 204.558594 340.457031 C 206.824219 340.953125 209.070312 341.289062 211.042969 341.289062 C 213.902344 341.289062 215.960938 340.574219 217.15625 339.167969 C 218.941406 337.074219 218.902344 335.175781 218.554688 333.953125 C 218.269531 332.957031 217.664062 331.984375 216.738281 331.03125 C 221.453125 324.632812 222.675781 320.367188 222.734375 320.164062 L 221.402344 319.792969 C 221.390625 319.839844 220.191406 323.960938 215.707031 330.09375 C 213.054688 327.914062 208.640625 325.839844 202.382812 323.820312 C 196.511719 321.921875 185.238281 319.109375 178.238281 319.109375 C 174.726562 319.109375 172.515625 319.8125 171.488281 321.261719 C 166.753906 320.140625 162.855469 319.203125 161.785156 318.902344 C 161.703125 318.878906 161.625 318.867188 161.546875 318.847656 C 160.566406 319.277344 159.683594 319.675781 158.941406 320.019531 C 159.730469 319.960938 160.578125 320 161.410156 320.230469 C 162.492188 320.535156 166.300781 321.453125 170.941406 322.550781 C 170.859375 323.046875 170.886719 323.660156 171.175781 324.363281 C 173.175781 329.207031 187.578125 334.753906 190.542969 335.855469 C 191.128906 336.105469 196.675781 338.457031 202.585938 339.984375 C 193.28125 345.109375 180.140625 351.660156 171.890625 355.648438 L 171.828125 355.691406 C 164.121094 352.050781 155.738281 348.238281 145.648438 343.78125 C 141.980469 342.160156 136.632812 339.847656 136.632812 339.847656 L 136.476562 340.210938 C 136.429688 340.550781 136.398438 340.894531 136.375 341.242188 C 137.539062 341.742188 141.933594 343.648438 145.089844 345.042969 C 154.886719 349.367188 163.066406 353.085938 170.582031 356.632812 C 169.3125 357.492188 167.210938 358.589844 165.488281 357.898438 C 164.527344 357.511719 155.683594 353.410156 141.222656 346.640625 C 139.125 345.660156 136.902344 344.644531 136.902344 344.644531 L 136.605469 345.289062 C 136.648438 345.554688 136.691406 345.824219 136.742188 346.089844 C 137.480469 346.429688 139.089844 347.167969 140.636719 347.890625 C 149.144531 351.875 163.625 358.636719 164.972656 359.179688 C 165.527344 359.402344 166.09375 359.496094 166.660156 359.496094 C 168.839844 359.496094 170.976562 358.097656 172.011719 357.304688 C 172.398438 357.488281 172.78125 357.671875 173.164062 357.851562 C 182.164062 362.132812 193.984375 367.859375 205.582031 374.160156 C 211.941406 377.617188 217.703125 382.121094 223.71875 388.339844 C 227.015625 391.746094 231.226562 395.273438 237.441406 395.582031 C 237.679688 395.59375 237.976562 395.609375 238.324219 395.628906 C 240.558594 395.765625 242.699219 395.832031 244.753906 395.832031 C 258.023438 395.832031 267.429688 393.035156 272.765625 387.496094 L 271.769531 386.539062 " fill-opacity="1" fill-rule="nonzero"/><path fill="rgb(98.429871%, 99.609375%, 99.609375%)" d="M 168.496094 344.277344 C 172.164062 344.914062 180.296875 346.984375 181.09375 341.25 C 181.734375 336.316406 174.078125 330.101562 170.089844 328.035156 C 167.699219 326.761719 164.984375 326.121094 162.273438 326.597656 L 159.722656 327.398438 C 156.214844 328.351562 154.617188 332.652344 156.054688 335.835938 C 158.285156 340.457031 163.867188 343.320312 168.496094 344.277344 " fill-opacity="1" fill-rule="nonzero"/><path fill="rgb(98.429871%, 99.609375%, 99.609375%)" d="M 197.902344 359.335938 C 196.476562 361.417969 203.671875 363.867188 204.800781 364.386719 C 208.664062 366.171875 212.476562 368.058594 216.328125 369.863281 C 221.300781 372.1875 226.535156 373.824219 231.542969 376.066406 C 233.882812 377.113281 236.441406 378.609375 239.113281 378.300781 C 241.734375 378 242.800781 375.601562 241.707031 373.230469 C 238.210938 365.683594 228.507812 366.078125 221.605469 365.664062 C 215.140625 365.269531 199.074219 357.628906 197.902344 359.335938 " fill-opacity="1" fill-rule="nonzero"/></svg>